<svg width="198" height="48" viewBox="0 0 198 48" fill="none" xmlns="http://www.w3.org/2000/svg">
<g clip-path="url(#clip0_653_702)">
<path d="M178.394 13.9183L183.693 0H187.68L192.917 13.9183H188.851L184.961 2.0914H186.368L182.381 13.9183H178.394ZM181.835 11.5728V8.52334H189.614V11.5728H181.835Z" fill="#FE9528"/>
<path d="M194.033 13.9183V0H197.944V13.9183H194.033Z" fill="#FE9528"/>
<path d="M0 29.6094V14.2627H4.86338V29.6094H0ZM9.85237 29.6094V20.6421C9.85237 19.8856 9.61577 19.2897 9.14258 18.8574C8.66938 18.4251 8.08519 18.2089 7.39001 18.2089C6.90513 18.2089 6.47283 18.3082 6.09603 18.5098C5.7163 18.7113 5.41544 18.9888 5.19637 19.3452C4.97438 19.7045 4.86338 20.1338 4.86338 20.6392L2.99982 19.7862C2.99982 18.5857 3.26854 17.5488 3.806 16.6754C4.34346 15.8021 5.05909 15.1273 5.9529 14.6541C6.84671 14.1809 7.87489 13.9443 9.03158 13.9443C10.0831 13.9443 11.0354 14.1868 11.8883 14.6717C12.7412 15.1565 13.4247 15.8283 13.9417 16.693C14.4587 17.5576 14.7158 18.5857 14.7158 19.7862V29.6065H9.85237V29.6094ZM19.6405 29.6094V20.6421C19.6405 19.8856 19.4039 19.2897 18.9307 18.8574C18.4575 18.4251 17.8821 18.2089 17.2102 18.2089C16.7487 18.2089 16.3223 18.3082 15.9309 18.5098C15.5424 18.7113 15.2415 18.9888 15.0312 19.3452C14.8209 19.7045 14.7158 20.1338 14.7158 20.6392L11.9058 20.2594C11.9701 18.9538 12.2855 17.8292 12.8522 16.8799C13.4218 15.9335 14.19 15.2062 15.1568 14.7009C16.1237 14.1955 17.2102 13.9443 18.4078 13.9443C19.6054 13.9443 20.6073 14.1926 21.5333 14.6863C22.4592 15.1799 23.1865 15.8809 23.7123 16.7864C24.2381 17.6919 24.5009 18.7873 24.5009 20.0696V29.6065H19.6376L19.6405 29.6094Z" fill="#FCFCFD"/>
<path d="M33.9736 29.9249C32.5832 29.9249 31.3331 29.5714 30.2173 28.8675C29.1015 28.1635 28.2222 27.2142 27.5796 26.0254C26.937 24.8366 26.6157 23.4725 26.6157 21.9361C26.6157 20.3996 26.937 19.0268 27.5796 17.8146C28.2222 16.6053 29.0956 15.656 30.1997 14.9725C31.3038 14.289 32.5628 13.9473 33.9736 13.9473C35.0047 13.9473 35.9365 14.1488 36.7689 14.5461C37.6014 14.9462 38.2791 15.4983 38.8049 16.2052C39.3306 16.912 39.6256 17.7153 39.6899 18.6208V25.2513C39.6256 26.1568 39.3365 26.963 38.8224 27.667C38.3083 28.3738 37.6336 28.9259 36.8011 29.3261C35.9686 29.7262 35.0281 29.9249 33.9736 29.9249ZM34.9842 25.5376C36.0153 25.5376 36.842 25.2017 37.4641 24.527C38.0863 23.8522 38.3959 22.9788 38.3959 21.9069C38.3959 21.2117 38.2586 20.5954 37.9841 20.0608C37.7095 19.5234 37.3093 19.1027 36.7836 18.799C36.2578 18.4952 35.6561 18.3404 34.9842 18.3404C34.3124 18.3404 33.7487 18.4923 33.2317 18.799C32.7147 19.1057 32.3057 19.5321 31.999 20.0783C31.6953 20.6275 31.5404 21.2467 31.5404 21.9419C31.5404 22.6371 31.6923 23.2563 31.999 23.8055C32.3028 24.3517 32.7147 24.7782 33.2317 25.0849C33.7458 25.3916 34.33 25.5434 34.9842 25.5434V25.5376ZM38.2061 29.6094V25.4733L38.9305 21.717L38.2061 18.022V14.2656H42.9731V29.6123H38.2061V29.6094Z" fill="#FCFCFD"/>
<path d="M51.9723 30.0209C51.0668 30.0209 50.173 29.8982 49.288 29.6587C48.4029 29.4163 47.5938 29.0803 46.8578 28.648C46.1217 28.2157 45.4791 27.7163 44.9299 27.1496L47.7078 24.3718C48.2335 24.918 48.8382 25.3445 49.5246 25.6512C50.2081 25.9579 50.9705 26.1097 51.8146 26.1097C52.3404 26.1097 52.7552 26.025 53.0619 25.8585C53.3656 25.6891 53.5204 25.4467 53.5204 25.1312C53.5204 24.7515 53.3423 24.474 52.983 24.2929C52.6266 24.1147 52.1564 23.9453 51.578 23.7876C50.9997 23.6299 50.395 23.4517 49.7641 23.2501C49.1332 23.0515 48.5315 22.7828 47.9648 22.4439C47.3952 22.108 46.9337 21.6436 46.5744 21.0536C46.2151 20.4635 46.037 19.6953 46.037 18.7489C46.037 17.8026 46.2911 16.9029 46.7964 16.1756C47.3017 15.4483 48.0174 14.8758 48.9433 14.4551C49.8693 14.0345 50.9734 13.8242 52.2586 13.8242C53.5438 13.8242 54.7414 14.0491 55.8572 14.5019C56.973 14.9546 57.8668 15.6235 58.5416 16.5057L55.7959 19.3156C55.311 18.746 54.7706 18.3429 54.1689 18.1005C53.5701 17.8581 52.9859 17.7383 52.4163 17.7383C51.8467 17.7383 51.4583 17.823 51.1837 17.9895C50.9091 18.156 50.7718 18.378 50.7718 18.6526C50.7718 18.968 50.9559 19.2221 51.3239 19.4091C51.6919 19.5989 52.1564 19.7684 52.7143 19.9144C53.2722 20.0605 53.8651 20.2357 54.499 20.4343C55.1299 20.6359 55.7287 20.9192 56.2983 21.2872C56.8679 21.6553 57.3294 22.1402 57.6886 22.739C58.045 23.3378 58.2261 24.1235 58.2261 25.0903C58.2261 26.5859 57.6624 27.7805 56.5378 28.6743C55.4103 29.5681 53.8914 30.0151 51.9753 30.0151L51.9723 30.0209Z" fill="#FCFCFD"/>
<path d="M67.8536 7.92188H62.9902V29.6099H67.8536V7.92188ZM59.5493 14.2633V18.4022H71.3266V14.2633H59.5493Z" fill="#FCFCFD"/>
<path d="M87.1146 17.61C86.4398 16.4563 85.5227 15.5537 84.3689 14.8936C83.2063 14.2422 81.8598 13.915 80.3263 13.915C78.7928 13.915 77.3644 14.2626 76.1289 14.9578C74.8846 15.653 73.909 16.6082 73.1904 17.8145C72.4718 19.0296 72.1184 20.3908 72.1184 21.9009C72.1184 23.4111 72.4894 24.854 73.2225 26.0691C73.9615 27.2901 74.9693 28.2452 76.2574 28.9346C77.5368 29.6152 79.0119 29.9569 80.6768 29.9569C81.9795 29.9569 83.1713 29.7437 84.2433 29.3143C85.3153 28.8762 86.2354 28.2102 86.989 27.3076L84.3017 24.6583C83.8431 25.1841 83.3027 25.5755 82.6952 25.8354C82.0818 26.1012 81.407 26.2356 80.6739 26.2356C79.8531 26.2356 79.1404 26.0574 78.5416 25.7098C77.9428 25.3681 77.4754 24.8657 77.1512 24.2143C77.049 24.0157 76.9672 23.7995 76.9 23.5717L87.8711 23.5191C87.9821 23.1423 88.0493 22.8006 88.0785 22.491C88.1165 22.1872 88.1311 21.8922 88.1311 21.5942C88.1311 20.0987 87.7893 18.7755 87.1175 17.613L87.1146 17.61ZM76.9 20.2155C76.9584 20.0081 77.0344 19.8154 77.122 19.6313C77.4258 19.0033 77.8552 18.5068 78.416 18.1504C78.971 17.7882 79.6311 17.61 80.3847 17.61C81.0799 17.61 81.6787 17.7736 82.1694 18.0832C82.666 18.4016 83.0428 18.8456 83.294 19.4298C83.3962 19.6606 83.478 19.9118 83.5306 20.1834L76.8971 20.2126L76.9 20.2155Z" fill="#FCFCFD"/>
<path d="M90.3975 29.6094V14.2627H95.2608V29.6094H90.3975ZM95.2608 21.2117L93.2395 19.6314C93.6397 17.8204 94.3174 16.4213 95.2754 15.4311C96.2335 14.4409 97.5421 13.9473 99.2071 13.9473C99.9431 13.9473 100.592 14.0583 101.149 14.2773C101.707 14.4993 102.195 14.8294 102.619 15.2734L99.7445 18.9363C99.5546 18.7259 99.3034 18.5565 98.9851 18.4309C98.6696 18.3053 98.3103 18.2411 97.9131 18.2411C97.0923 18.2411 96.4438 18.4893 95.9706 18.983C95.4974 19.4795 95.2608 20.2215 95.2608 21.2088V21.2117Z" fill="#FCFCFD"/>
<path d="M103.752 38.197V14.2656H108.616V18.1797L107.827 21.9361L108.554 25.6632V33.9675C108.554 36.3042 106.661 38.197 104.325 38.197H103.755H103.752ZM112.658 29.9249C111.607 29.9249 110.649 29.7233 109.784 29.3261C108.922 28.9259 108.221 28.3738 107.684 27.667C107.146 26.963 106.837 26.1568 106.752 25.2513V18.7785C106.837 17.8526 107.152 17.0259 107.698 16.2986C108.245 15.5713 108.951 14.9988 109.813 14.5782C110.675 14.1576 111.624 13.9473 112.655 13.9473C114.087 13.9473 115.366 14.2949 116.493 14.99C117.618 15.6852 118.509 16.6316 119.16 17.8321C119.812 19.0326 120.139 20.3996 120.139 21.9361C120.139 23.4725 119.817 24.8366 119.175 26.0254C118.532 27.2142 117.644 28.1635 116.508 28.8675C115.372 29.5744 114.087 29.9249 112.655 29.9249H112.658ZM111.741 25.5376C112.416 25.5376 113.009 25.3857 113.526 25.079C114.043 24.7752 114.452 24.3488 114.758 23.7996C115.062 23.2534 115.217 22.6313 115.217 21.9361C115.217 21.2409 115.065 20.6216 114.758 20.0725C114.455 19.5263 114.049 19.0998 113.543 18.7931C113.038 18.4893 112.448 18.3345 111.776 18.3345C111.104 18.3345 110.508 18.4864 109.991 18.7931C109.474 19.0998 109.071 19.5263 108.776 20.0725C108.481 20.6216 108.335 21.2409 108.335 21.9361C108.335 22.6313 108.481 23.2505 108.776 23.7996C109.071 24.3459 109.477 24.7723 109.991 25.079C110.505 25.3857 111.093 25.5376 111.744 25.5376H111.741Z" fill="#FCFCFD"/>
<path d="M122.572 29.6094V14.2627H127.435V29.6094H122.572Z" fill="#FCFCFD"/>
<path d="M138.36 29.9569C136.698 29.9569 135.223 29.6152 133.937 28.9317C132.652 28.2482 131.644 27.2959 130.905 26.075C130.169 24.854 129.801 23.4666 129.801 21.9068C129.801 20.347 130.158 19.0296 130.873 17.8174C131.589 16.6082 132.567 15.6559 133.809 14.9607C135.05 14.2656 136.449 13.918 138.009 13.918C139.569 13.918 140.892 14.2451 142.052 14.8965C143.208 15.5479 144.126 16.4534 144.8 17.613C145.472 18.7697 145.811 20.0958 145.811 21.5913C145.811 21.8863 145.796 22.1872 145.764 22.491C145.732 22.7977 145.665 23.1394 145.56 23.5162L132.36 23.5805V20.2331L143.474 20.1688L141.392 21.5884C141.371 20.7267 141.234 20.0052 140.98 19.4269C140.729 18.8485 140.352 18.4016 139.858 18.0862C139.364 17.7707 138.769 17.613 138.073 17.613C137.317 17.613 136.657 17.7912 136.099 18.1504C135.541 18.5097 135.109 19.0033 134.805 19.6343C134.501 20.2652 134.346 21.0246 134.346 21.9068C134.346 22.7889 134.51 23.56 134.837 24.2114C135.164 24.8628 135.626 25.3652 136.227 25.7128C136.826 26.0604 137.539 26.2327 138.36 26.2327C139.096 26.2327 139.77 26.1013 140.381 25.8384C140.991 25.5755 141.529 25.1812 141.99 24.6554L144.675 27.3076C143.918 28.2131 143.001 28.882 141.929 29.3114C140.854 29.7437 139.665 29.9598 138.36 29.9598V29.9569Z" fill="#FCFCFD"/>
<path d="M155.535 29.9569C153.934 29.9569 152.491 29.6093 151.209 28.9141C149.924 28.2189 148.919 27.2609 148.194 26.0399C147.467 24.819 147.105 23.4519 147.105 21.936C147.105 20.42 147.473 19.0267 148.209 17.8145C148.945 16.6052 149.956 15.653 151.241 14.9578C152.526 14.2626 153.966 13.915 155.567 13.915C156.788 13.915 157.898 14.1195 158.897 14.5314C159.896 14.9432 160.787 15.5479 161.564 16.3482L158.438 19.5057C158.079 19.1056 157.664 18.8106 157.191 18.6207C156.718 18.4308 156.175 18.3374 155.564 18.3374C154.889 18.3374 154.285 18.4892 153.747 18.7959C153.21 19.1026 152.789 19.5233 152.485 20.0578C152.179 20.5953 152.027 21.2116 152.027 21.9038C152.027 22.5961 152.179 23.2504 152.485 23.7966C152.789 24.3428 153.216 24.7693 153.765 25.076C154.311 25.3827 154.913 25.5346 155.564 25.5346C156.215 25.5346 156.759 25.4294 157.252 25.2191C157.746 25.0088 158.172 24.7021 158.532 24.3019L161.657 27.3952C160.836 28.2365 159.925 28.8732 158.926 29.3055C157.927 29.7378 156.794 29.954 155.532 29.954L155.535 29.9569Z" fill="#FCFCFD"/>
<path d="M170.943 29.9569C169.281 29.9569 167.806 29.6152 166.52 28.9317C165.235 28.2482 164.227 27.2959 163.488 26.075C162.752 24.854 162.384 23.4666 162.384 21.9068C162.384 20.347 162.741 19.0296 163.456 17.8174C164.172 16.6082 165.15 15.6559 166.392 14.9607C167.633 14.2656 169.032 13.918 170.592 13.918C172.152 13.918 173.475 14.2451 174.635 14.8965C175.791 15.5479 176.709 16.4534 177.383 17.613C178.055 18.7697 178.394 20.0958 178.394 21.5913C178.394 21.8863 178.379 22.1872 178.347 22.491C178.315 22.7977 178.248 23.1394 178.143 23.5162L164.943 23.5805V20.2331L176.057 20.1688L173.975 21.5884C173.954 20.7267 173.817 20.0052 173.563 19.4269C173.312 18.8485 172.935 18.4016 172.441 18.0862C171.947 17.7707 171.352 17.613 170.656 17.613C169.9 17.613 169.24 17.7912 168.682 18.1504C168.124 18.5097 167.692 19.0033 167.388 19.6343C167.084 20.2652 166.929 21.0246 166.929 21.9068C166.929 22.7889 167.093 23.56 167.42 24.2114C167.747 24.8628 168.209 25.3652 168.81 25.7128C169.412 26.0604 170.122 26.2327 170.943 26.2327C171.679 26.2327 172.353 26.1013 172.964 25.8384C173.574 25.5755 174.112 25.1812 174.573 24.6554L177.258 27.3076C176.501 28.2131 175.584 28.882 174.512 29.3114C173.437 29.7437 172.248 29.9598 170.943 29.9598V29.9569Z" fill="#FCFCFD"/>
<path d="M147.756 39.7746C147.657 39.7308 147.566 39.6724 147.49 39.5993C147.412 39.5263 147.353 39.4387 147.309 39.3423C147.266 39.2459 147.242 39.1437 147.242 39.0298C147.242 38.9158 147.263 38.8078 147.309 38.7085C147.353 38.6091 147.415 38.5215 147.49 38.4456C147.569 38.3696 147.657 38.3112 147.756 38.2703C147.856 38.2294 147.961 38.2061 148.08 38.2061C148.2 38.2061 148.311 38.2265 148.416 38.2703C148.522 38.3112 148.612 38.3696 148.691 38.4456C148.77 38.5215 148.831 38.6091 148.878 38.7085C148.925 38.8078 148.945 38.9188 148.945 39.0298C148.945 39.1408 148.922 39.2459 148.878 39.3423C148.831 39.4416 148.77 39.5263 148.691 39.5993C148.612 39.6724 148.519 39.7308 148.416 39.7746C148.311 39.8184 148.197 39.8389 148.08 39.8389C147.964 39.8389 147.859 39.8184 147.756 39.7746Z" fill="#FCFCFD"/>
<path fill-rule="evenodd" clip-rule="evenodd" d="M141.032 38.9568C140.769 38.7231 140.436 38.542 140.03 38.4105C139.627 38.2791 139.142 38.2119 138.576 38.2119H136.084C135.973 38.2119 135.891 38.244 135.836 38.3054C135.778 38.3667 135.751 38.4427 135.751 38.5303V45.856C135.757 45.9291 135.783 45.9962 135.836 46.0517C135.891 46.1131 135.976 46.1452 136.084 46.1452H137.291C137.378 46.1452 137.454 46.116 137.515 46.0605C137.577 46.005 137.609 45.9203 137.609 45.8122V43.493H138.576C139.128 43.493 139.607 43.4258 140.013 43.2944C140.419 43.1629 140.752 42.9789 141.018 42.7423C141.281 42.5057 141.476 42.2224 141.605 41.8923C141.733 41.5622 141.798 41.2 141.798 40.8028C141.798 40.4377 141.736 40.0959 141.611 39.7805C141.485 39.465 141.292 39.1904 141.029 38.9597L141.032 38.9568ZM139.621 41.7609C139.408 41.9887 139.061 42.1026 138.576 42.1026H137.609V39.5877H138.576C138.809 39.5877 139.014 39.6169 139.183 39.6753C139.353 39.7337 139.496 39.8155 139.607 39.9236C139.718 40.0317 139.803 40.1573 139.855 40.3062C139.911 40.4552 139.937 40.6217 139.937 40.8028C139.937 41.2117 139.832 41.533 139.619 41.7609H139.621Z" fill="#FCFCFD"/>
<path fill-rule="evenodd" clip-rule="evenodd" d="M125.061 45.9202C124.634 45.9202 124.266 45.815 123.954 45.6047C123.726 45.447 123.553 45.2454 123.44 45.003V45.8325H122.572V38.8164H123.44V41.86C123.556 41.6176 123.729 41.419 123.954 41.2642C124.266 41.0539 124.634 40.9487 125.061 40.9487C125.487 40.9487 125.858 41.0509 126.176 41.2525C126.495 41.4482 126.737 41.7315 126.91 42.0996C127.088 42.4676 127.175 42.9116 127.175 43.4344C127.175 43.9573 127.088 44.3954 126.91 44.7693C126.737 45.1373 126.489 45.4207 126.165 45.6164C125.846 45.8121 125.478 45.9114 125.058 45.9114L125.061 45.9202ZM124.859 45.2337C125.291 45.2337 125.639 45.0848 125.899 44.7868C126.165 44.4831 126.299 44.0332 126.299 43.4432C126.299 42.8532 126.165 42.4063 125.899 42.1083C125.639 41.8045 125.291 41.6497 124.859 41.6497C124.427 41.6497 124.07 41.7987 123.811 42.0966C123.556 42.3946 123.428 42.8415 123.428 43.4315C123.428 44.0215 123.556 44.4714 123.811 44.7751C124.07 45.0789 124.421 45.2337 124.859 45.2337Z" fill="#FCFCFD"/>
<path d="M128.06 47.9997L127.859 47.2928C128.156 47.2227 128.405 47.1409 128.603 47.0445C128.799 46.9569 128.966 46.8372 129.1 46.6911C129.234 46.5451 129.351 46.361 129.453 46.139L129.605 45.7739L127.584 41.0391H128.519L130.064 44.8421L131.609 41.0391H132.506L130.303 46.2062C130.169 46.5188 130.023 46.7787 129.865 46.989C129.713 47.1993 129.544 47.3717 129.36 47.5031C129.182 47.6375 128.986 47.7426 128.77 47.8186C128.554 47.8945 128.32 47.9559 128.066 47.9997H128.06Z" fill="#FCFCFD"/>
<path d="M144.137 40.4988C144.199 40.5543 144.231 40.639 144.231 40.7471C144.231 40.7471 144.949 40.417 145.966 40.417C146.159 40.417 146.302 40.5134 146.302 40.7383V41.8044C146.287 41.8804 146.258 41.933 146.214 41.9651C146.17 41.9972 146.024 42.0293 145.896 42.006C145.247 41.895 144.555 42.2659 144.234 42.4938V45.8237C144.234 45.9317 144.202 46.0164 144.14 46.0719C144.079 46.1274 144.003 46.1567 143.915 46.1567H142.864C142.753 46.1567 142.671 46.1245 142.615 46.0632C142.56 46.0018 142.531 45.9259 142.531 45.8383V40.7324C142.531 40.6448 142.56 40.5718 142.615 40.5075C142.671 40.4462 142.756 40.4141 142.864 40.4141H143.915C144.003 40.4141 144.079 40.4433 144.14 40.4988H144.137Z" fill="#FCFCFD"/>
<path d="M148.63 40.4023H147.578C147.47 40.4023 147.385 40.4345 147.33 40.4958C147.274 40.5572 147.245 40.6331 147.245 40.7207V45.8295C147.245 45.9171 147.274 45.9901 147.33 46.0544C147.385 46.1157 147.47 46.1479 147.578 46.1479H148.63C148.717 46.1479 148.793 46.1186 148.855 46.0631C148.916 46.0076 148.948 45.9229 148.948 45.8149V40.7353C148.948 40.6273 148.916 40.5425 148.855 40.487C148.793 40.4316 148.717 40.4023 148.63 40.4023Z" fill="#FCFCFD"/>
<path d="M155.222 41.6993C155.138 41.4364 155.012 41.2085 154.848 41.0187C154.682 40.8288 154.48 40.6799 154.241 40.5718C154.001 40.4637 153.724 40.4111 153.414 40.4111C153.23 40.4111 153.061 40.4287 152.906 40.4637H152.9C152.751 40.4988 152.383 40.5805 151.887 40.8201V40.7295C151.887 40.6419 151.857 40.5689 151.802 40.5046C151.746 40.4433 151.665 40.4141 151.559 40.4111H150.508C150.403 40.4111 150.321 40.4433 150.268 40.5046C150.213 40.5659 150.184 40.6419 150.184 40.7295V45.8383C150.184 45.8821 150.192 45.923 150.204 45.9609C150.219 45.9989 150.239 46.031 150.265 46.0603C150.265 46.0603 150.274 46.069 150.277 46.0719C150.309 46.1041 150.347 46.1245 150.394 46.1391C150.429 46.1508 150.464 46.1566 150.502 46.1566H151.568C151.606 46.1566 151.644 46.1508 151.676 46.1391C151.723 46.1245 151.761 46.1041 151.793 46.0719C151.793 46.0719 151.802 46.0603 151.805 46.0603C151.831 46.034 151.851 45.9989 151.866 45.9609C151.881 45.923 151.887 45.8821 151.887 45.8383V42.5055L151.933 42.4704C152.094 42.3565 152.161 42.3098 152.357 42.2046C152.517 42.1199 152.757 42.0089 152.944 42.0001C153.081 41.9943 153.344 41.9826 153.473 42.1374C153.601 42.2922 153.645 42.4412 153.645 42.7187V45.8237C153.645 45.9317 153.677 46.0164 153.738 46.0719C153.8 46.1274 153.876 46.1566 153.963 46.1566H155.015C155.123 46.1566 155.208 46.1245 155.263 46.0632C155.319 46.0018 155.348 45.9259 155.348 45.8383V42.5551C155.348 42.2455 155.307 41.9592 155.222 41.6963V41.6993Z" fill="#FCFCFD"/>
<path d="M159.68 41.5855C159.618 41.641 159.542 41.6703 159.455 41.6703H158.392V44.3897C158.392 44.5211 158.412 44.6292 158.473 44.7139C158.538 44.7986 158.631 44.8424 158.751 44.8424H159.461C159.554 44.8424 159.639 44.8833 159.697 44.9505C159.721 44.9797 159.741 45.0118 159.753 45.0498C159.762 45.0761 159.767 45.1053 159.767 45.1345V45.8501C159.762 46.0166 159.624 46.1481 159.455 46.1481H158.339C158.067 46.1481 157.828 46.1101 157.62 46.0312C157.413 45.9524 157.241 45.8414 157.098 45.6982C156.957 45.5551 156.849 45.3828 156.776 45.1783C156.703 44.9739 156.665 44.7489 156.665 44.4977V41.6644H156.18C156.093 41.6644 156.017 41.6352 155.956 41.5797C155.894 41.5242 155.862 41.4395 155.862 41.3314V40.6654C155.871 40.6012 155.897 40.5428 155.944 40.4931C156.002 40.4318 156.084 40.3996 156.192 40.3996H156.677V39.1612C156.677 39.0735 156.706 39.0005 156.762 38.9362C156.817 38.8749 156.902 38.8428 157.01 38.8428H158.062C158.149 38.8428 158.225 38.872 158.286 38.9275C158.348 38.983 158.38 39.0677 158.38 39.1758V40.3996H159.443C159.531 40.3996 159.607 40.4289 159.668 40.4844C159.729 40.5398 159.762 40.6246 159.762 40.7326V41.3314C159.762 41.4395 159.729 41.5242 159.668 41.5797L159.68 41.5855Z" fill="#FCFCFD"/>
<path fill-rule="evenodd" clip-rule="evenodd" d="M166.12 42.088C165.98 41.7346 165.781 41.4367 165.527 41.1884C165.273 40.943 164.966 40.7532 164.613 40.6188C164.257 40.4874 163.862 40.4202 163.433 40.4202C163.004 40.4202 162.641 40.4786 162.297 40.5984V38.5508C162.297 38.4427 162.265 38.358 162.203 38.3025C162.142 38.247 162.066 38.2178 161.978 38.2178H160.927C160.816 38.2178 160.734 38.2499 160.678 38.3112C160.664 38.3259 160.652 38.3434 160.64 38.3609C160.626 38.3872 160.611 38.4135 160.605 38.4427C160.6 38.4631 160.597 38.4836 160.594 38.504C160.594 38.5157 160.594 38.5245 160.594 38.5362V45.8356C160.594 45.8356 160.594 45.8561 160.594 45.8677C160.594 45.8882 160.6 45.9086 160.605 45.9291C160.614 45.9583 160.626 45.9846 160.64 46.0109C160.652 46.0284 160.664 46.043 160.678 46.0605C160.734 46.1219 160.819 46.154 160.927 46.154H161.978C162.037 46.154 162.089 46.1423 162.136 46.1189L162.148 46.1131C162.148 46.1131 162.154 46.1131 162.154 46.1102H162.156C162.177 46.0956 162.194 46.081 162.212 46.0635C162.215 46.0576 162.221 46.0547 162.224 46.0488C162.227 46.0459 162.229 46.0401 162.235 46.0342C162.241 46.0284 162.247 46.0196 162.25 46.0109C162.265 45.9846 162.279 45.9583 162.285 45.9291C162.291 45.9086 162.294 45.8882 162.297 45.8677C162.297 45.8561 162.297 45.8473 162.297 45.8356V45.7597C162.586 46.0021 163.12 46.1511 163.43 46.1511C163.938 46.1511 164.257 46.1043 164.613 45.97C164.969 45.8356 165.273 45.6253 165.527 45.377C165.781 45.1287 165.98 44.8279 166.12 44.4715C166.26 44.1152 166.331 43.715 166.331 43.2739C166.331 42.8329 166.26 42.4386 166.12 42.0851V42.088ZM164.295 44.5153C164.111 44.7841 163.821 44.9214 163.43 44.9214C163.039 44.9214 162.732 44.7052 162.545 44.4365C162.419 44.2554 162.338 44.0129 162.297 43.7062V42.7277C162.338 42.4444 162.422 42.2399 162.545 42.0588C162.732 41.7901 163.027 41.6557 163.43 41.6557C163.833 41.6557 164.111 41.7901 164.295 42.0588C164.479 42.3276 164.572 42.7365 164.572 43.2856C164.572 43.8348 164.479 44.2466 164.295 44.5153Z" fill="#FCFCFD"/>
<path d="M178.336 45.6747C178.336 45.6747 178.342 45.6835 178.345 45.6893C178.35 45.6951 178.353 45.701 178.356 45.7097C178.38 45.7506 178.394 45.8003 178.394 45.8529C178.394 46.0194 178.251 46.1567 178.076 46.1567H176.945C176.82 46.1567 176.718 46.1274 176.642 46.069C176.566 46.0106 176.501 45.9405 176.452 45.8616L175.391 44.1295C175.371 44.1909 175.351 44.2493 175.321 44.3048C175.295 44.3603 175.266 44.4099 175.237 44.4567L174.366 45.8616C174.32 45.9376 174.258 46.0048 174.182 46.0661C174.106 46.1274 174.01 46.1567 173.896 46.1567H172.9C172.725 46.1567 172.582 46.0223 172.582 45.8529C172.582 45.7886 172.602 45.7273 172.64 45.6776L174.308 43.2357L172.722 40.896C172.722 40.896 172.701 40.8697 172.693 40.8551C172.669 40.8142 172.655 40.7646 172.655 40.7149C172.655 40.5572 172.783 40.4257 172.947 40.4141H174.1C174.226 40.4141 174.319 40.4287 174.378 40.4608C174.436 40.4929 174.489 40.5426 174.536 40.6156L175.596 42.3857C175.619 42.3214 175.649 42.2572 175.681 42.1958C175.716 42.1345 175.754 42.0673 175.795 42.0001L176.551 40.6448C176.601 40.5601 176.656 40.5017 176.718 40.4666C176.779 40.4316 176.855 40.4141 176.943 40.4141H177.968C177.968 40.4141 177.971 40.4141 177.974 40.4141C177.974 40.4141 177.977 40.4141 177.979 40.4141C177.982 40.4141 177.979 40.4141 177.982 40.4141C177.982 40.4141 177.982 40.4141 177.988 40.4141C178.161 40.4199 178.298 40.5513 178.298 40.7178C178.298 40.7792 178.277 40.8347 178.245 40.8843L176.659 43.1656L178.333 45.6805L178.336 45.6747Z" fill="#FCFCFD"/>
<path fill-rule="evenodd" clip-rule="evenodd" d="M171.767 41.1881C171.513 40.9428 171.206 40.7529 170.852 40.6185C170.496 40.4871 170.102 40.4199 169.669 40.4199C169.237 40.4199 168.837 40.4871 168.478 40.6185C168.121 40.75 167.812 40.9398 167.555 41.1881C167.298 41.4335 167.096 41.7343 166.956 42.0878C166.816 42.4412 166.743 42.8355 166.743 43.2766C166.743 43.7177 166.813 44.1208 166.956 44.4742C167.096 44.8306 167.298 45.1314 167.555 45.3797C167.815 45.628 168.121 45.8208 168.478 45.9551C168.834 46.0895 169.231 46.1567 169.669 46.1567C170.108 46.1567 170.496 46.0895 170.852 45.9551C171.209 45.8208 171.513 45.6309 171.767 45.3797C172.021 45.1314 172.219 44.8306 172.36 44.4742C172.5 44.1178 172.57 43.7177 172.57 43.2766C172.57 42.8355 172.5 42.4412 172.36 42.0878C172.219 41.7343 172.021 41.4364 171.767 41.1881ZM170.534 44.5151C170.35 44.7838 170.061 44.9211 169.669 44.9211C169.278 44.9211 168.971 44.7867 168.784 44.5151C168.597 44.2464 168.504 43.8345 168.504 43.2854C168.504 42.7362 168.597 42.3244 168.784 42.0586C168.971 41.7898 169.266 41.6555 169.669 41.6555C170.073 41.6555 170.35 41.7898 170.534 42.0586C170.718 42.3273 170.812 42.7362 170.812 43.2854C170.812 43.8345 170.718 44.2464 170.534 44.5151Z" fill="#FCFCFD"/>
</g>
<defs>
<clipPath id="clip0_653_702">
<rect width="197.941" height="48" fill="white"/>
</clipPath>
</defs>
</svg>
